<svg xmlns="http://www.w3.org/2000/svg" xmlns:xlink="http://www.w3.org/1999/xlink" width="427" height="352" viewBox="0 0 427 352">
    <defs>
        <path id="a" d="M0 .205h496.89v338.513H0z"/>
        <path id="c" d="M121.74 4.43c-2.718 2.43-4.472 5.802-7.26 8.147-5.2 4.37-13.309 4.658-17.848 9.537-.226.246-.444.497-.652.761-3.782 4.852-2.747 11.731-1.541 17.75 1.45 7.244.85 13.05 7.063 15.13.023.29.042.578.075.862a30.693 30.693 0 0 0 13.502 22.09l-1.006.359a159.852 159.852 0 0 0-6.647 2.492c-5.673 2.312-17.615 5.324-17.615 5.324s-.285 3.404-.232 8.426c-3.98 4.326-10.623 11.929-12.576 16.435-2.836 6.573-18.863 25.395-23.132 28.237-4.27 2.842-8.898 6.214-8.898 6.214s-6.76 3.73-9.96 4.084c-2.218.247-9.078-1.068-9.078-1.068s-27.397-33.57-25.62-7.812c1.778 25.76 23.663 26.634 23.663 26.634l22.063-.354s11.924 1.598 17.262-2.837c4.557-3.782 28.176-24.535 35.764-33.949.175.195.35.383.535.568 0 0 3.02-3.905 3.38 0 .36 3.905-1.963 5.674-.714 7.092 1.248 1.419 4.983 6.393 5.158 8.346.175 1.952-4.978 9.929 3.734 15.981.137.094.284.185.445.275 1.556 3.54 6.5 7.006 6.5 7.006l26.688-.354 50.354 3.906s1.5-1.32 3.527-3.476c2.71 2.487 6.468 4.62 10.704 3.31 0 0 6.051-7.276 6.231-12.071 0 0-3.915-10.123-5.673-13.14-1.76-3.017 1.248-9.588 1.248-9.588s2.132-6.394 3.38-6.394c1.248 0 .354-4.255.354-4.255a5.175 5.175 0 0 1-.533-4.794c1.044-2.69 1.758-7.665 1.758-7.665l.53-16.336c-.317-.246-.639-.472-.946-.7a86.988 86.988 0 0 0-.832-14.568c-2.137-16.336-16.012-16.69-19.927-13.32a9.453 9.453 0 0 1-1.688 1.164c.355-2.331.794-4.667 1.11-6.974 1.712-12.445-.945-26.445-10.599-34.488-4.042-3.362-8.982-5.428-13.421-8.241-7.952-5.017-14.235-12.426-22.277-17.31-4.42-2.685-9.822-4.447-14.957-4.447-4.208 0-8.235 1.183-11.395 4.011"/>
    </defs>
    <g fill="none" fill-rule="evenodd">
        <g transform="translate(0 6)">
            <mask id="b" fill="#fff">
                <use xlink:href="#a"/>
            </mask>
            <path fill="#FF5038" d="M493.098 138.772c-.09.53-.18 1.06-.279 1.591-3.209 18.058-8.449 35.467-16.24 51.451a147.026 147.026 0 0 1-19.08 29.819c-3.88 4.683-8.113 9.128-13.144 12.339-7.053 4.497-15.299 6.325-23.402 7.821-8.42 1.558-16.95 2.841-25.46 4.261a523.717 523.717 0 0 0-8.994 1.549c-8.221 1.486-16.382 3.205-24.348 5.482-9.85 2.841-19.406 6.5-28.4 11.685-.72.41-1.431.832-2.135 1.265-.705.426-1.42.861-2.106 1.306-.687.445-1.378.886-2.06 1.335l-1.05.71c-.345.228-.686.474-1.027.701-1.013.692-2.012 1.42-3.01 2.121l-.038.029c-.658.473-1.312.947-1.965 1.42-3.687 2.732-7.294 5.592-10.887 8.461l-2.267 1.813a3002 3002 0 0 1-3.511 2.78c-.687.544-1.383 1.084-2.074 1.624-.502.393-.999.786-1.51 1.174a204.074 204.074 0 0 1-7.8 5.752c-.63.44-1.27.881-1.893 1.312a99.867 99.867 0 0 1-16.823 9.27l-.075.033a66.777 66.777 0 0 1-8.937 3.083 53.527 53.527 0 0 1-5.263 1.14 46.52 46.52 0 0 1-14.271.247c-9.32-1.321-18.054-5.682-27.35-7.14-19.18-2.978-37.805 6.629-55.853 14.17a279.11 279.11 0 0 1-13.4 5.209 280.944 280.944 0 0 1-9.018 3.082 283.828 283.828 0 0 1-56.577 12.107c-7.847.857-16.031 1.264-24.021.648a81.154 81.154 0 0 1-8.994-1.17c-10.115-1.893-19.558-5.913-27.164-13.256-6.32-6.008-10.778-13.863-14.177-22.059a107.499 107.499 0 0 1-3.611-10.103 112.679 112.679 0 0 1-3.678-16.491 77.617 77.617 0 0 1-.473-3.788 112.82 112.82 0 0 1-.55-6.534 113.187 113.187 0 0 1 3.366-34.563c3.223-12.494 8.6-24.459 10.967-37.072.1-.53.19-1.06.28-1.59.315-1.894.555-3.823.719-5.786 1.192-15.426-3.423-30.525-7.067-45.647-.128-.53-.256-1.06-.379-1.59a216.64 216.64 0 0 1-1.122-5.034C3.573 117.746 2.65 100.63 5.646 84.67c.095-.53.204-1.065.312-1.59 2.022-9.886 5.59-19.29 11.057-27.665 5.609-8.598 12.975-15.752 20.827-22.04 3.834-3.061 7.799-5.925 11.895-8.593a159.174 159.174 0 0 1 8.993-5.43C83.386 5.62 111.516-1.09 139.33.41c1.473.077 2.943.178 4.41.304 1.54.133 3.076.29 4.606.473 17.906 2.07 35.33 7.197 52.649 12.808 5.803 1.893 11.592 3.787 17.381 5.681 2.575.84 5.148 1.668 7.72 2.486 12.614 3.982 25.437 7.575 38.378 10.283 3 .632 5.999 1.208 8.993 1.729a212.534 212.534 0 0 0 31.52 3.248c4.102.1 8.204.058 12.306-.128 2.074-.095 4.148-.234 6.224-.417 21.447-1.837 42.127-7.997 62.893-13.782 3-.838 6.006-1.672 8.993-2.477 3.947-1.06 7.9-2.088 11.866-3.035 24.699-5.932 46.709-2.523 69.67 9.711 5.206 2.78 10.413 6.132 13.632 11.32 3.219 5.19 4 11.615 4.596 17.798.842 8.797 1.42 17.717 1.605 26.675 0 .53 0 1.06.033 1.591.417 18.138-.686 36.414-3.707 54.093" mask="url(#b)" opacity=".324"/>
        </g>
        <path fill="#FF5038" d="M273.529 197.814v-51.451h16.093c-.17-.142-.345-.284-.525-.417l-.237-.18c-.1-.08-.198-.156-.303-.227-.104-.07-.35-.25-.535-.374-.185-.123-.298-.204-.473-.303l-.109-.07h-13.916v-2.818l-.374.18-.398.222h-.028l-.085.052-.246.161c-.086.053-.17.105-.251.161-.246.166-.474.346-.733.53l-.237.19c-.161.123-.313.251-.473.379-.63.516-1.25 1.056-1.894 1.553-.16.128-.322.25-.473.37-.345.251-.702.485-1.07.7a5.053 5.053 0 0 1-.473.26l-.266.123-.241.105c-.569.24-1.158.427-1.76.558v50.296h-24.14c0 .057.033.11.046.166.133.474.265.947.393 1.42h23.705v55.154h.37l.42.029.768.057 1.24.122.558.067.615.076h.09c.355.047.715.104 1.08.16l.231.038.521.086.748.132 1.794-.095.246.053c.1 0 .199.037.303.061v-55.935h37.304v-.237l.141-1.316a.102.102 0 0 1 0-.038H273.53zm55.759 0h-1.614v1.591h1.826l-.212-1.59zm-18.295 0a.127.127 0 0 0 0 .038l-.142 1.316v.237h14.01v-.095l1-1.496h-14.868zm75.482-53.028H273.524V92.118l1.586-1.449h111.36l.005 54.117zm0 53.028H273.524v-51.451H386.47l.004 51.451zm-238.086 0h116.123v-51.451H148.389v51.451zm0-107.145h116.123v54.103H148.384l.005-54.103zM58.773 197.814h80.594v-51.451H58.773v51.451zm0-107.145h80.594v54.103h-80.6l.006-54.103zm336.72 0h101.402c0-.53 0-1.06-.034-1.59H395.492v-62.47c-3.01.806-6.016 1.639-8.993 2.477v59.993H276.212l-.279-.303.422-.474 41.018-45.031c-4.101.19-8.204.232-12.306.128l-31.543 34.61V40.165c-3.01-.52-6.008-1.097-8.993-1.728v37.83l-46.117-50.6c-5.789-1.893-11.578-3.82-17.381-5.681l62.684 68.79-.28.303H148.385V7.169a227.034 227.034 0 0 0-4.606-.473c-1.467-.13-2.937-.23-4.41-.303v82.686h-80.6V25.35a151.655 151.655 0 0 0-8.994 5.431v58.298H5.94c-.109.525-.218 1.06-.312 1.59h44.11v54.103H8.069c.123.53.25 1.06.379 1.591h41.308v51.451H14.78c-.09.53-.18 1.06-.28 1.591h35.255v143.862c2.973.557 5.976.948 8.993 1.17V199.404h80.618v132.276a308.57 308.57 0 0 0 9.017-3.082V199.405h116.128v115.573a66.731 66.731 0 0 0 8.936-3.083l.076-.033V199.405H386.47v54.197c2.994-.54 5.993-1.055 8.993-1.547v-52.65h80.31c.266-.53.526-1.06.782-1.59h-81.064v-51.452h97.332c.1-.53.19-1.06.28-1.59h-97.612V90.668zm-121.96 107.145v-51.451h16.094c-.17-.142-.346-.284-.526-.417l-.236-.18c-.1-.08-.2-.156-.303-.227-.104-.07-.35-.25-.535-.374-.185-.123-.298-.204-.474-.303l-.108-.07H273.524v-2.818l-.374.18-.398.222h-.028l-.085.052-.246.161c-.086.053-.17.105-.251.161-.246.166-.474.346-.733.53l-.237.19c-.161.123-.313.251-.473.379-.63.516-1.25 1.056-1.894 1.553-.16.128-.322.25-.473.37-.345.251-.702.485-1.07.7a5.053 5.053 0 0 1-.473.26l-.266.123-.241.105c-.569.24-1.158.427-1.76.558v50.296h-24.14c0 .057.033.11.046.166.133.474.27.947.398 1.42h23.7v55.15l.37.023.42.028.768.058 1.24.122.558.067.615.075h.09c.355.048.715.105 1.08.161l.231.038.521.086.748.132 1.794-.095.246.052c.1 0 .199.038.303.062v-55.954h36.31l.17-1.59h-36.456zm36.447 0l-.16 1.591h15.586l1.06-1.59H309.98zm19.303 0h-1.615v1.591h1.828l-.213-1.59zm-55.76 0v-51.451h16.094c-.17-.142-.345-.284-.525-.417l-.237-.18c-.1-.08-.199-.156-.303-.227-.103-.07-.35-.25-.535-.374-.184-.123-.298-.204-.473-.303l-.109-.07h-13.911v-2.818l-.374.18-.398.222h-.028l-.085.052-.246.161c-.086.053-.17.105-.251.161-.246.166-.474.346-.733.53l-.237.19c-.161.123-.313.251-.473.379-.63.516-1.25 1.056-1.894 1.553-.16.128-.322.25-.473.37-.345.251-.702.485-1.07.7a5.053 5.053 0 0 1-.473.26l-.266.123-.241.105c-.569.24-1.158.427-1.76.558v50.296h-24.14c0 .057.033.11.046.166.133.474.265.947.393 1.42h23.705v55.154h.37l.42.029.768.057 1.24.122.558.067.615.076h.09c.355.047.715.104 1.08.16l.231.038.521.086.748.132 1.794-.095.246.053c.1 0 .199.037.303.061v-55.935h37.304v-.237l.141-1.316a.102.102 0 0 1 0-.038h-37.431zm37.466 0a.102.102 0 0 0 0 .038l-.142 1.316v.237h14.01v-.095l.999-1.496h-14.867zm18.294 0h-1.615v1.591h1.828l-.213-1.59z"/>
        <path fill="#65617D" d="M307.15 289.95c-1.171.929-2.342 1.855-3.513 2.78-.686.544-1.382 1.084-2.073 1.624-.502.393-.999.786-1.51 1.173a204.61 204.61 0 0 1-9.694 7.065 99.782 99.782 0 0 1-16.822 9.27l-.076.034V289.95h33.688z"/>
        <g transform="translate(144 87)">
            <mask id="d" fill="#fff">
                <use xlink:href="#c"/>
            </mask>
            <path d="M121.74 4.43c-2.718 2.43-4.472 5.802-7.26 8.147-5.2 4.37-13.309 4.658-17.848 9.537-.226.246-.444.497-.652.761-3.782 4.852-2.747 11.731-1.541 17.75 1.45 7.244.85 13.05 7.063 15.13.023.29.042.578.075.862a30.693 30.693 0 0 0 13.502 22.09l-1.006.359a159.852 159.852 0 0 0-6.647 2.492c-5.673 2.312-17.615 5.324-17.615 5.324s-.285 3.404-.232 8.426c-3.98 4.326-10.623 11.929-12.576 16.435-2.836 6.573-18.863 25.395-23.132 28.237-4.27 2.842-8.898 6.214-8.898 6.214s-6.76 3.73-9.96 4.084c-2.218.247-9.078-1.068-9.078-1.068s-27.397-33.57-25.62-7.812c1.778 25.76 23.663 26.634 23.663 26.634l22.063-.354s11.924 1.598 17.262-2.837c4.557-3.782 28.176-24.535 35.764-33.949.175.195.35.383.535.568 0 0 3.02-3.905 3.38 0 .36 3.905-1.963 5.674-.714 7.092 1.248 1.419 4.983 6.393 5.158 8.346.175 1.952-4.978 9.929 3.734 15.981.137.094.284.185.445.275 1.556 3.54 6.5 7.006 6.5 7.006l26.688-.354 50.354 3.906s1.5-1.32 3.527-3.476c2.71 2.487 6.468 4.62 10.704 3.31 0 0 6.051-7.276 6.231-12.071 0 0-3.915-10.123-5.673-13.14-1.76-3.017 1.248-9.588 1.248-9.588s2.132-6.394 3.38-6.394c1.248 0 .354-4.255.354-4.255a5.175 5.175 0 0 1-.533-4.794c1.044-2.69 1.758-7.665 1.758-7.665l.53-16.336c-.317-.246-.639-.472-.946-.7a86.988 86.988 0 0 0-.832-14.568c-2.137-16.336-16.012-16.69-19.927-13.32a9.453 9.453 0 0 1-1.688 1.164c.355-2.331.794-4.667 1.11-6.974 1.712-12.445-.945-26.445-10.599-34.488-4.042-3.362-8.982-5.428-13.421-8.241-7.952-5.017-14.235-12.426-22.277-17.31-4.42-2.685-9.822-4.447-14.957-4.447-4.208 0-8.235 1.183-11.395 4.011" mask="url(#d)"/>
        </g>
        <g>
            <path fill="#EE8E9E" d="M329.775 199.217l-1.895 2.22-7.652 8.923-9.998.607-16.002.986s-21.577-26.032-17.523-31.698c1.473-2.044 1.715-4.742 1.42-7.288-.037-.351-.09-.702-.15-1.048a30.3 30.3 0 0 0-2.52-7.777l.53-.241.341-.157 18.868-8.62 4.67-2.134a12.616 12.616 0 0 0 1.278 3.689c.09.18.19.36.293.531 6.436 10.669 27.075 3.921 27.075 3.921l1.265 38.086z"/>
            <path fill="#EE8E9E" d="M357.674 185.898c-.142 6.458-1.194 9.246-1.194 9.246l-26.705 4.073-1-6.942-3.954-27.412 3.714-3.717a9.903 9.903 0 0 0 8.49-2.125c3.889-3.366 17.684-3.01 19.806 13.277a90.32 90.32 0 0 1 .843 13.6"/>
            <path fill="#DFE5EE" d="M351.352 261.542s6.009-7.26 6.19-12.04l-6.015-10.094-5.304-5.69-9.908 19.147s6.545 11.333 15.037 8.677"/>
            <path fill="#000" d="M351.352 261.542s6.009-7.26 6.19-12.04l-6.015-10.094-5.304-5.69-9.908 19.147s6.545 11.333 15.037 8.677"/>
            <path fill="#D48A9B" d="M301.725 293.691c-.503.394-1 .787-1.511 1.176a205.105 205.105 0 0 1-7.805 5.761c-.63.441-1.27.882-1.894 1.313H139.44l-44.697-1.602-35.945-.303-8.998-.475-44.896-2.37a112.955 112.955 0 0 1-3.698-16.53 79.14 79.14 0 0 1-.474-3.793l49.05 2.721 8.997.508 80.642 4.504 9.022.503 116.19 6.496 8.94.502h.076l28.075 1.59z"/>
            <path fill="#EFC6CD" d="M362.315 258.37c-9.855 2.845-19.417 6.51-28.415 11.702-.715.413-1.421.835-2.136 1.267a75.77 75.77 0 0 0-2.108 1.308c-.686.446-1.377.887-2.06 1.337l-1.05.712-1.028.701c-1.014.697-2.013 1.423-3.013 2.125l-.038.028c-.657.474-1.311.949-1.965 1.423-3.689 2.736-7.297 5.6-10.892 8.473-.758.607-1.517 1.213-2.278 1.816l-3.505 2.784c-.686.545-1.383 1.085-2.074 1.626-.502.394-.999.787-1.51 1.176l-26.521-1.266h-.076l-8.941-.417-116.242-5.515-9.022-.431-80.642-3.837-8.998-.431-48.595-2.29a78.99 78.99 0 0 1-.473-3.794c-.247-2.171-.43-4.353-.55-6.543l49.614-17.545 8.998-3.19 8.173-2.893 14.895.778 34.424 1.768 23.168 1.219 9.022.474 5.764.303 1.378.076 48.504 2.537.512.033 21.643 1.129h.388l2.165.109 7.378.389 9.225.474 3.04.161.574.033 4.3.223 1.226.062 4.107.218 1.633.09h.393l3.841.204 5.948.313h.03l1.846.095h.198l1.104.061 2.71.143 2.367.123h.024l2.656.137h.043l2.013.11 1.544.08 5.48.29.984.051h.341l.474.029 1.605.085.72.038 5.589.29h.511l8.25-.072h.057l31.365-.256H343.509l10.097-.08h1.506l7.203-.043z"/>
            <path fill="#FF5038" d="M150.627 259.02l2.917 15.538 79.316-1.195s5.968 1.726 5.835-3.053c0 0 12.072-11.423 73.216 1.858l-23.475-18.46-64.171 3.453-74.41-1.992.772 3.85z"/>
            <path fill="#FFF" d="M152.086 255.302l2.785 16.866s68.196-1.991 78.918-.132l-8.103-15.406s-41.235-3.85-73.6-1.328"/>
            <path fill="#000" d="M152.086 255.302l2.785 16.866s68.196-1.991 78.918-.132l-8.103-15.406s-41.235-3.85-73.6-1.328"/>
            <path fill="#FFF" d="M153.104 255.24l2.747 15.686s67.33-1.85 77.938-.124l-7.99-14.324s-40.737-3.585-72.695-1.237"/>
            <path fill="#000" d="M154.34 255.724l2.676 14.67s65.852-1.73 76.247-.113l-7.814-13.405s-39.847-3.366-71.109-1.152"/>
            <path fill="#FFF" d="M154.87 255.188l2.69 14.7s65.852-1.731 76.248-.114l-7.833-13.42s-39.843-3.361-71.104-1.166"/>
            <path fill="#FF5038" d="M108.28 215.296s3.447 4.51-1.587 11.323c-5.034 6.814-9.193 12.561-7.511 16.81 0 0 7.577-12.652 13.781-12.803 6.204-.152 2.122-7.724-4.684-15.33"/>
            <path fill="#000" d="M108.28 215.296c.302.437.54.917.705 1.423 6.033 7.112 9.249 13.75 3.448 13.893-5.404.152-11.883 9.825-13.436 12.272.054.183.116.368.185.554.104.28 7.577-12.65 13.781-12.802 6.204-.152 2.122-7.734-4.684-15.34"/>
            <path fill="#FFD037" d="M114.687 221.048c0 1.584-.18 2.873-.398 2.873-.218 0-.398-1.29-.398-2.873 0-1.584.223-.844.44-.844.219 0 .356-.745.356.844"/>
            <path fill="#FFD037" d="M116.884 222.94c-1.392.763-2.604 1.223-2.709 1.029-.104-.195.948-.948 2.33-1.727 1.383-.777.843-.208.948 0 .104.21.824-.061-.569.698"/>
            <path fill="#FF5038" d="M90.08 215.296s-3.448 4.51 1.59 11.323c5.04 6.814 9.188 12.561 7.512 16.81 0 0-7.601-12.652-13.786-12.803-6.185-.152-2.122-7.724 4.684-15.33"/>
            <path fill="#000" d="M90.08 215.296c-.301.439-.538.918-.706 1.423-6.034 7.112-9.25 13.75-3.448 13.893 5.404.152 11.887 9.825 13.44 12.272-.05.183-.112.368-.184.554-.11.28-7.601-12.65-13.786-12.802-6.185-.152-2.122-7.734 4.684-15.34"/>
            <path fill="#FFD037" d="M83.672 221.048c0 1.584.18 2.873.398 2.873.218 0 .397-1.29.397-2.873 0-1.584-.222-.844-.44-.844s-.355-.745-.355.844"/>
            <path fill="#FFD037" d="M81.474 222.94c1.393.763 2.61 1.223 2.714 1.029.104-.195-.947-.948-2.33-1.727-1.383-.777-.843-.208-.947 0-.104.21-.829-.061.563.698"/>
            <path fill="#65617D" d="M117.708 237.345l-.17 1.423-.242 1.986-.099.83-.242 1.992-.104.83-.246 1.991-2.756 22.628c-.247 2.02-3.543 3.594-7.52 3.594H92.015c-3.978 0-7.27-1.574-7.515-3.594l-2.761-22.628-.242-1.991-.1-.83-.246-1.992-.099-.83-.242-1.986-.175-1.423c-.137-1.143 1.644-2.105 3.898-2.105h29.296c2.25 0 4.035.962 3.878 2.105"/>
            <path fill="#9D9CB5" d="M117.552 238.753l-.241 1.992H81.053l-.242-1.992zM117.211 241.575l-.241 1.991H81.399l-.247-1.991zM116.865 244.396l-.241 1.987H81.74l-.242-1.987z"/>
            <path fill="#EE8E9E" d="M161.416 235.515s-9.197-8.853-8.842 2.656c.355 11.507 8.842-2.656 8.842-2.656"/>
            <path fill="#EE8E9E" d="M244.004 215.33c-.204.891-1.194 2.37-2.737 4.224-7.975 9.616-30.665 29.603-35.112 33.31-5.304 4.43-17.153 2.846-17.153 2.846l-21.927.355s-21.752-.887-23.523-26.553c-1.771-25.667 25.465 7.79 25.465 7.79s6.82 1.31 9.021 1.062c3.183-.35 9.903-4.068 9.903-4.068s4.599-3.367 8.842-6.197c4.243-2.831 20.16-21.604 22.993-28.156 1.794-4.16 7.577-10.959 11.57-15.368 2.291-2.538 3.992-4.268 3.992-4.268s9.902 29.532 8.666 35.023"/>
            <path fill="#000" d="M244.004 215.33c-.204.891-1.194 2.37-2.737 4.224-8.051-8.208-9.732-24.585-9.922-34.998 2.292-2.537 3.993-4.268 3.993-4.268s9.902 29.55 8.666 35.042M327.876 201.436l-7.648 8.924-9.998.607-16.002.987s-21.576-26.033-17.523-31.7c1.473-2.043 1.714-4.741 1.42-7.287-.037-.35-.09-.702-.15-1.048a30.334 30.334 0 0 0-2.52-7.776l.53-.243.341-.156a34.069 34.069 0 0 1 1.734 7.26c.052.336.1.688.146 1.047.166 1.28.318 2.703.474 4.268 1.231 14.33 10.234 19.72 14.298 21.437a41.4 41.4 0 0 1 3.826 1.854 20.396 20.396 0 0 0 12.834 2.324c10.03-1.318 18.21-8.616 18.21-8.616l.042 7.184-.014.934z"/>
            <path fill="#DFE5EE" d="M328.184 257.118s-65.786-.18-74.458-6.197c-8.67-6.018-3.532-13.988-3.713-15.938-.18-1.948-3.888-6.903-5.123-8.326-1.236-1.422 1.06-3.186.705-7.079-.355-3.893-3.357 0-3.357 0-12.385-12.575-9.733-44.444-9.733-44.444s11.84-3.006 17.523-5.316c1.54-.626 3.935-1.517 6.63-2.48l1-.36c6.947-2.49 15.206-5.301 15.206-5.301s1.587-1.124 3.182 2.238c.73 1.545 1.464 4.035 2.051 8.014.053.336.1.687.147 1.047.166 1.28.318 2.703.474 4.268 1.23 14.33 10.234 19.72 14.297 21.437a41.163 41.163 0 0 1 3.827 1.854 20.396 20.396 0 0 0 12.834 2.323c10.03-1.317 18.209-8.615 18.209-8.615l.043 7.184.123 21.584.133 34.107z"/>
            <path fill="#EE8E9E" d="M325.352 229.142l-1.061 6.728s-26.175 6.549-36.428 8.497c-10.253 1.95-32.365-.53-33.956 3.718-1.592 4.249 6.72 10.095 6.72 10.095l26.52-.356 50.049 3.899s19.1-16.825 12.91-28.512c-6.19-11.689-24.754-4.069-24.754-4.069"/>
            <path fill="#000" d="M271.415 176.02s-12.029 9.915-9.727 14.7c2.301 4.784 9.727-14.7 9.727-14.7M256.559 193.902s-12.205 21.072-11.494 22.665c.71 1.593 4.068 7.26 3.888 3.01-.18-4.248 7.606-25.675 7.606-25.675M261.512 197.624s-2.841 13.101-5.659 18.592c-2.818 5.49 5.66-18.592 5.66-18.592M301.46 157.224a30.593 30.593 0 0 1-23.254 15.752h-.057a30.513 30.513 0 0 1-21.529-5.642c7.104-2.57 16.206-5.662 16.206-5.662s1.587-1.124 3.183 2.238l23.878-10.906c.268 1.49.8 2.919 1.572 4.22"/>
            <path fill="#EE8E9E" d="M305.191 141.491a30.526 30.526 0 0 1-4.025 15.202 30.854 30.854 0 0 1-4.561 6.08 30.452 30.452 0 0 1-18.545 9.18h-.062c-1.129.129-2.264.194-3.4.194-15.563 0-28.646-11.697-30.4-27.18a29.789 29.789 0 0 1-.194-3.457c0-16.917 13.697-30.631 30.593-30.631 16.897 0 30.594 13.714 30.594 30.631v-.019z"/>
            <path fill="#000" d="M325.001 199.454l2.842-4.268s15.562-18.592 30.783-6.728l-.53 16.293s-.71 4.955-1.772 7.586a5.186 5.186 0 0 0 .53 4.785s.886 4.267-.35 4.267-3.362 6.373-3.362 6.373-3.008 6.554-1.236 9.564c1.771 3.011 5.66 13.102 5.66 13.102s-6.191-3.718-7.962-9.915c0 0-15.031-11.689-26.705-4.268L325 199.454z"/>
            <path fill="#000" d="M357.674 185.898c-.142 6.458-1.194 9.246-1.194 9.246l-26.705 4.073-1-6.942c3.496-3.651 16.207-15.259 28.899-6.377"/>
            <path fill="#DFE5EE" d="M325.001 198.506l2.842-4.268s15.562-18.592 30.783-6.728l-.53 16.292s-.71 4.955-1.772 7.587a5.186 5.186 0 0 0 .53 4.784s.886 4.268-.35 4.268-3.362 6.373-3.362 6.373-3.008 6.553-1.236 9.564c1.771 3.01 5.66 13.101 5.66 13.101s-6.191-3.717-7.962-9.915c0 0-15.031-11.688-26.705-4.267L325 198.506z"/>
            <path fill="#000" d="M350.11 186.467s-25.64 15.76-24.403 29.583c0 0 14.326-25.335 24.404-29.583"/>
            <path fill="#000" d="M327.871 201.441l.123 21.584c-4.85.218-9.42-.413-13.033-3.556-2.514-2.191-3.978-5.216-4.736-8.488a30.121 30.121 0 0 1-.616-8.028.566.566 0 0 1 0-.08c.3-5.96 1.668-11.92.947-17.843-.719-5.923-4.304-12.172-10.157-13.42-1.156-.25-2.454-.34-3.278-1.19-.909-.948-.866-2.422-.767-3.736l.17-2.214c.043-.57.062-1.133.062-1.698-.007-10.382-7.347-19.309-17.523-21.309l-.189-.034c-1.648-.331-3.363-.658-5.01-.279-3.136.725-5.162 3.77-8.051 5.216-5.541 2.769-14.78-.26-20.582-1.214a16.281 16.281 0 0 1-1.085-.213 29.801 29.801 0 0 1-.194-3.457c.008-16.918 13.711-30.625 30.608-30.618 16.896.008 30.587 13.728 30.58 30.646a30.66 30.66 0 0 1-4.026 15.173c.09.181.19.361.293.532 6.436 10.668 27.075 3.921 27.075 3.921l1.24 38.072-1.85 2.233z"/>
            <path fill="#603556" d="M266.925 145.84c2.87-1.452 4.898-4.496 8.051-5.216 1.644-.38 3.359-.053 5.016.275l.189.038c10.797 2.139 18.29 12.024 17.442 23.011l-.17 2.214c-.105 1.31-.147 2.793.772 3.732.819.849 2.117.949 3.272 1.186 5.854 1.251 9.44 7.468 10.158 13.423.72 5.956-.672 11.935-.947 17.92-.274 5.983.824 12.588 5.342 16.52 7.104 6.163 17.902 2.655 27.303 2.09-4.158 0-7.274-4.295-7.502-8.45-.227-4.153 1.62-8.107 3.386-11.853 1.767-3.746 3.538-7.777 3.145-11.921-.54-5.69-5.02-10.247-6.735-15.724-1.998-6.372-.07-13.215.834-19.839 1.7-12.404-.947-26.369-10.537-34.387-4.016-3.352-8.927-5.415-13.341-8.222-7.909-5.022-14.146-12.385-22.14-17.27-7.995-4.883-19.219-6.695-26.194-.436-2.7 2.423-4.442 5.785-7.218 8.123-5.422 4.576-14.042 4.661-18.39 10.275-3.74 4.832-2.727 11.693-1.528 17.692 1.595 7.999.696 14.225 9.235 15.647 5.777.915 15.012 3.945 20.557 1.171"/>
            <path fill="#000" d="M337.281 217.212c-6.843.84-13.625 1.27-18.607-3.054-4.518-3.93-5.631-10.531-5.342-16.52.29-5.989 1.672-11.973.947-17.924-.725-5.95-4.305-12.167-10.158-13.419-1.156-.246-2.448-.336-3.273-1.185-.914-.949-.876-2.428-.772-3.737l.171-2.214c.847-10.986-6.646-20.87-17.442-23.007l-.19-.038c-1.658-.327-3.371-.654-5.015-.275-3.135.726-5.162 3.794-8.051 5.216-5.545 2.774-14.776-.256-20.586-1.21-8.525-1.398-7.635-7.633-9.235-15.647-.895-4.476-1.686-9.436-.474-13.675a7.45 7.45 0 0 0-.653.764c-3.742 4.831-2.728 11.693-1.53 17.69 1.596 8 .696 14.226 9.235 15.649 5.806.948 15.04 3.983 20.586 1.209 2.87-1.451 4.897-4.495 8.051-5.216 1.644-.38 3.358-.052 5.016.275l.189.038c10.796 2.139 18.29 12.024 17.442 23.011l-.17 2.215c-.105 1.308-.147 2.793.772 3.731.819.85 2.117.949 3.272 1.186 5.853 1.252 9.439 7.468 10.158 13.424.72 5.955-.667 11.935-.947 17.919-.28 5.984.824 12.589 5.342 16.52 7.104 6.164 17.901 2.655 27.303 2.09-2.553.015-4.698-1.606-6.039-3.816"/>
            <path fill="#5C5C8E" d="M145.082 233.03l29.196-10.906a2.779 2.779 0 0 1 3.576 1.631 2.784 2.784 0 0 1-1.63 3.58l-29.196 10.906-6.26-.625 4.314-4.586z"/>
            <path fill="#FFF" d="M176.973 222.864a2.785 2.785 0 0 1-1.634 3.58l-29.215 10.944-4.698-.474-.678.72 6.261.626 29.197-10.906a2.784 2.784 0 0 0 .492-4.969c.105.152.197.312.275.479"/>
            <path fill="#EFC8C4" d="M145.086 233.03l1.942 5.211-5.134-.517-1.122-.114 1.534-1.63z"/>
            <path fill="#727A9C" d="M142.302 235.965c.12.09.222.2.303.327a.474.474 0 0 1 0 .508 1.002 1.002 0 0 1-.28.204.947.947 0 0 0-.416.701l-1.127-.109 1.52-1.63z"/>
            <path fill="#FFF" d="M236.754 266.312s25.289-5.315 67.722 1.423l-16.623-12.215-30.243-6.197-21.396 5.69.54 11.3z"/>
            <path fill="#000" d="M236.754 266.312s25.289-5.315 67.722 1.423l-16.623-12.215-30.243-6.197-21.396 5.69.54 11.3z"/>
            <path fill="#FFF" d="M233.789 272.06s12.734-34.492 78.141.108l-23.475-15.126s-56.239-15.557-62.736 2.371l8.07 12.646z"/>
            <path fill="#000" d="M233.789 272.036s12.734-36.877 78.141.663l-23.475-16.406s-56.258-18.606-62.77.868l8.104 14.875z"/>
            <path fill="#FFF" d="M233.789 272.05s12.734-37.422 78.141.118l-23.475-16.406s-56.239-18.076-62.736 1.422l8.07 14.866z"/>
            <path fill="#000" d="M233.789 272.06s12.734-41.59 78.141.64l-23.494-18.46s-56.239-18.967-62.736 2.92l8.089 14.9z"/>
            <path fill="#FFF" d="M233.789 272.036s12.734-42.097 78.141.132l-23.494-18.459s-56.239-18.967-62.736 2.92l8.089 15.407z"/>
            <path fill="#FF5038" d="M430.014 268.071s-15.699 16.838-1.568 25.018c0 0 1.847 2.228 4.485 1.062 0 0-.89-.792.895-2.319a10.598 10.598 0 0 0 1.682-1.849 5.22 5.22 0 0 0 .975-3.158s2.055-6.681-4.475-15.354c0 0-.592-2.902-1.094-3.22l-1.194 4.045s2.998.764 4.125 3.05c0 0-3.95-3.107-4.333-2.457-.076.133-.535 2.177-.535 2.177s5.21 1.346 6.838 4.93c0 0-4.21-4.328-7.018-4.158l-.511 3.12s5.573 1.157 7.577 5.169c0 0-4.556-4.377-7.653-4.476l-.09 3.134s5.413 1.233 7.065 4.58c0 0-5.773-4.518-7.037-3.86 0 0 .09 2.889.474 3.642 0 0 3.864.949 4.65 3.007 0 0-4.176-2.613-4.537-2.215 0 0 1.123 3.727 2.685 5.316 0 0-2.481-2.177-3.258-5.112 0 0-1.051 1.835-.786 3.637 0 0-1.549-1.716.526-4.542 0 0-.758-2.94-.569-3.405 0 0-2.439 2.499-3.064 4.742 0 0-.473-2.807 3.06-5.553v-3.158s-3.4 3.134-4.102 5.074c0 0-.047-2.94 4.173-5.866l.473-3.068s-3.135 2.476-4.38 4.467c0 0 .54-2.74 4.546-5.339l.554-2.01s-2.254 1.849-2.841 2.437c-.588.588-.81.474-.81.474a9.95 9.95 0 0 1 3.883-3.765s1.45-4.087 1.189-4.197M301.114-.035s-31.513 9.01-16.192 22.419c0 0 1.359 2.845 5.72 2.845 0 0-.814-1.1 2.558-1.769 1.16-.233 2.3-.57 3.4-1.005a6.066 6.066 0 0 0 3.136-2.508s6.63-5.311 2.277-16.018c0 0 .791-2.92.26-3.423l-3.94 3.233s3.79 1.95 4.107 4.524c0 0-3.823-4.5-4.736-4.059-.185.09-1.97 1.778-1.97 1.778s6.573 3.405 6.871 7.393c0 0-3.504-5.743-7.577-6.753l-2.463 2.665s7.199 3.381 7.79 7.914c0 0-3.968-5.922-8.268-7.302l-1.895 2.845s6.934 3.386 7.389 7.16c0 0-5.603-6.567-7.753-6.487 0 0-1.482 2.703-1.35 3.561 0 0 4.897 2.504 4.874 4.704 0 0-4.424-4.144-5.153-3.926 0 0-.502 3.902.815 6.017 0 0-2.283-3.04-1.734-6.064 0 0-2.505 1.256-3.135 3.025 0 0-1.222-2.224 3.277-3.969 0 0 .573-3.025 1.099-3.376 0 0-4.83 1.29-6.947 3.082 0 0 .89-2.788 7.406-3.85l1.79-2.902s-6.535 1.48-8.61 2.973c0 0 1.578-2.731 9.155-3.68l2.368-2.631s-5.797.981-8.666 2.3c0 0 2.296-2.3 9.386-3.035l1.894-1.622s-4.21.768-5.384 1.062c-1.175.294-1.421.104-1.421.104a18.638 18.638 0 0 1 7.577-1.858s4.32-3.168 4.045-3.367M394.083 351.526s15.865-16.686 1.814-25.003c0 0-1.828-2.248-4.476-1.11 0 0 .886.801-.914 2.315a10.694 10.694 0 0 0-1.7 1.83 5.19 5.19 0 0 0-1.004 3.148s-2.126 6.662 4.324 15.396c0 0 .564 2.907 1.06 3.234l1.237-4.035s-2.993-.792-4.097-3.087c0 0 3.917 3.14 4.305 2.494.08-.133.56-2.166.56-2.166s-5.21-1.423-6.792-4.999c0 0 4.167 4.372 6.98 4.225l.54-3.115s-5.559-1.209-7.534-5.216c0 0 4.513 4.42 7.61 4.552l.119-3.139s-5.404-1.309-7.043-4.675c0 0 5.731 4.58 7 3.93 0 0-.062-2.882-.474-3.64 0 0-3.854-1.016-4.622-3.055 0 0 4.154 2.656 4.514 2.257 0 0-1.085-3.736-2.634-5.339 0 0 2.463 2.2 3.211 5.14 0 0 1.07-1.825.82-3.627 0 0 1.534 1.735-.568 4.538 0 0 .729 2.95.535 3.41 0 0 2.463-2.476 3.106-4.69 0 0 .474 2.811-3.11 5.52l-.049 3.157s3.43-3.101 4.149-5.036c0 0 0 2.945-4.23 5.828l-.473 3.063s3.159-2.447 4.423-4.424c0 0-.568 2.731-4.598 5.292l-.573 2.005s2.273-1.825 2.88-2.408c.606-.584.814-.475.814-.475a9.914 9.914 0 0 1-3.92 3.727s-1.427 4.064-1.19 4.178M354.174 299.647s-22.173-6.165-22.884 10.166c0 0-1.117 2.674 1.132 4.476 0 0 .29-1.157 2.468-.28a10.62 10.62 0 0 0 2.415.64c1.12.162 2.26-.048 3.249-.597 0 0 6.867-1.261 11.527-11.067 0 0 2.297-1.864 2.368-2.46l-4.135.81s.71 3.015-.795 5.073c0 0 .947-4.94.175-4.979-.156 0-2.174.527-2.174.527s1.213 5.244-1.208 8.35c0 0 1.894-5.738.441-8.156l-3.002.991s1.553 5.482-1.071 9.123c0 0 1.771-6.064.426-8.862l-2.813 1.37s1.42 5.377-.79 8.393c0 0 1.335-7.217.165-8.037 0 0-2.51 1.423-2.998 2.115 0 0 .948 3.883-.511 5.52 0 0 .379-4.918-.137-5.05 0 0-2.785 2.716-3.467 4.84 0 0 .781-3.21 3.021-5.253 0 0-2.112-.086-3.585.981 0 0 .805-2.166 4.263-1.63 0 0 2.254-2.035 2.751-2.077 0 0-3.315-1.016-5.598-.541 0 0 2.264-1.726 6.332.151l2.803-1.422s-4.347-1.57-6.388-1.3c0 0 2.58-1.422 7.104.992l2.927-1s-3.637-1.637-5.977-1.826c0 0 2.676-.782 6.83 1.574l2.035-.44s-2.68-1.148-3.48-1.423c-.801-.275-.796-.474-.796-.474a9.931 9.931 0 0 1 5.13 1.706s4.261-.664 4.247-.924"/>
        </g>
    </g>
</svg>
